<?xml version="1.0" encoding="UTF-8"?>
<svg version="1.1" xmlns="http://www.w3.org/2000/svg" width="429" height="192">
<path d="M0 0 C0.65226562 0.3520752 1.30453125 0.70415039 1.9765625 1.06689453 C3.75928678 2.03451562 5.53612642 3.01295651 7.3125 3.9921875 C15.654008 8.3081515 23.28521837 10.49533458 32.6328125 11.4140625 C46.2590125 12.79630137 46.2590125 12.79630137 52.0078125 15.8515625 C53.57216088 18.42656666 54.26905181 20.02624066 55.0078125 22.8515625 C55.3469165 24.08229492 55.3469165 24.08229492 55.69287109 25.33789062 C56.41004291 28.08280709 57.06060927 30.83648075 57.6953125 33.6015625 C57.92025391 34.54644531 58.14519531 35.49132812 58.37695312 36.46484375 C60.0078125 43.43441299 60.0078125 43.43441299 60.0078125 46.8515625 C60.9565625 47.1196875 61.9053125 47.3878125 62.8828125 47.6640625 C66.0078125 48.8515625 66.0078125 48.8515625 68.0078125 51.8515625 C68.016564 54.61120358 67.91628664 57.23530459 67.6953125 59.9765625 C67.64262207 60.73904297 67.58993164 61.50152344 67.53564453 62.28710938 C67.24588174 66.32143285 66.87016274 70.33579654 66.3828125 74.3515625 C66.2590625 75.5065625 66.1353125 76.6615625 66.0078125 77.8515625 C66.3378125 78.1815625 66.6678125 78.5115625 67.0078125 78.8515625 C67.1328125 82.3515625 67.1328125 82.3515625 67.0078125 85.8515625 C64.58397732 88.27539768 58.41352213 87.38511115 55.1328125 87.5703125 C52.1428324 87.50291698 52.1428324 87.50291698 51.0078125 88.8515625 C48.53965912 89.14191113 46.08943301 89.37480198 43.61328125 89.5703125 C42.49763542 89.66451477 42.49763542 89.66451477 41.35945129 89.76062012 C38.97173965 89.96188281 36.58359805 90.15723691 34.1953125 90.3515625 C31.81778049 90.54630423 29.44039539 90.74239724 27.06330872 90.94250488 C25.58220374 91.06708483 24.10083222 91.18854484 22.6191864 91.30651855 C17.73357594 91.66675422 17.73357594 91.66675422 13.0078125 92.8515625 C11.80334261 94.52568831 11.80334261 94.52568831 11.0078125 96.6015625 C7.13560068 104.93942856 1.20336397 109.61034422 -7.1796875 113.2265625 C-16.83867632 114.81000329 -26.43254361 115.09644233 -34.9921875 109.8515625 C-40.82464119 105.51017395 -45.0838979 102.04913306 -46.9921875 94.8515625 C-48.01124239 95.33794724 -48.01124239 95.33794724 -49.05088425 95.83415794 C-52.539643 97.0409288 -55.36089788 97.11370454 -59.05303955 97.1300354 C-59.75273322 97.1358278 -60.45242689 97.1416202 -61.17332339 97.14758813 C-63.5130569 97.1645617 -65.85259275 97.16746277 -68.19238281 97.17041016 C-69.87355021 97.17971293 -71.55471301 97.18988213 -73.23587036 97.20085144 C-77.80788235 97.22819735 -82.37986337 97.24332633 -86.95193577 97.25627947 C-91.76785808 97.27197035 -96.58371887 97.29876538 -101.39959717 97.3243103 C-110.5576205 97.37117577 -119.71565591 97.40784613 -128.87373805 97.44098318 C-139.16276145 97.47874747 -149.45171563 97.52847006 -159.74068308 97.57896733 C-180.06442633 97.67803211 -200.3882094 97.77295615 -220.71212173 97.82937706 C-225.59610971 97.84317002 -230.48004149 97.86224692 -235.36399484 97.8851701 C-238.46126185 97.8987142 -241.55853125 97.90805938 -244.65581656 97.91626811 C-246.09355511 97.92092549 -247.53128928 97.92730699 -248.96901178 97.93554425 C-250.92713558 97.94650588 -252.88529402 97.95064838 -254.84344482 97.95443726 C-255.94058178 97.95872931 -257.03771873 97.96302135 -258.16810226 97.96744347 C-260.62387948 97.86667532 -262.65276897 97.5662156 -264.9921875 96.8515625 C-265.3634375 97.96337891 -265.3634375 97.96337891 -265.7421875 99.09765625 C-268.51771345 105.21248686 -274.6423067 109.54396801 -280.6171875 112.3515625 C-288.51058726 115.10994245 -298.13304834 115.43694333 -305.9296875 112.2265625 C-313.06780818 108.40160727 -319.8749615 103.87470543 -322.671875 95.91796875 C-323.16376614 94.24351742 -323.58490361 92.5485787 -323.9921875 90.8515625 C-327.67059639 93.12463914 -327.67059639 93.12463914 -330.9921875 95.8515625 C-333.57440641 95.83964915 -336.10497604 95.75207708 -338.6796875 95.6015625 C-339.74219727 95.56095703 -339.74219727 95.56095703 -340.82617188 95.51953125 C-346.61798704 95.18795919 -350.75000029 93.6217103 -355.3671875 89.9765625 C-357.3986954 87.31997525 -357.39213266 86.13111281 -356.9921875 82.8515625 C-356.79753906 82.13742188 -356.60289062 81.42328125 -356.40234375 80.6875 C-355.7700891 76.3159107 -356.71590864 72.12937003 -357.49609375 67.82226562 C-358.2554496 62.87707784 -357.83952511 59.98698141 -354.9921875 55.8515625 C-353.66783382 55.16723104 -352.33532149 54.49825664 -350.9921875 53.8515625 C-350.07604628 51.71902584 -350.07604628 51.71902584 -349.6171875 49.2265625 C-347.78928811 42.45258241 -344.43689359 37.3410451 -338.7421875 33.1640625 C-316.51165563 20.88200069 -284.24220057 19.95363786 -259.35522461 17.23217773 C-252.69696216 16.4923708 -246.08740045 15.61663323 -239.4921875 14.4453125 C-238.23019531 14.22166016 -236.96820313 13.99800781 -235.66796875 13.76757812 C-230.28757369 12.42676767 -225.55454195 10.11233374 -220.7109375 7.421875 C-214.74920127 4.15924638 -208.71292538 1.04195958 -202.6796875 -2.0859375 C-201.51236084 -2.69139404 -200.34503418 -3.29685059 -199.14233398 -3.9206543 C-137.89760264 -35.60957685 -60.65940044 -32.7864506 0 0 Z " fill="#A2A39F" transform="translate(359.9921875,54.1484375)"/>
<path d="M0 0 C-0.67488415 6.49575998 -1.99325658 12.71265274 -3.5 19.0625 C-4.90979721 25.02795621 -6.25687789 30.91146542 -7 37 C-5.02 37 -3.04 37 -1 37 C0.13498141 40.40494424 -0.17964928 41.63846401 -0.8671875 45.10546875 C-2.6801418 56.07917448 -2.73420251 67.21624399 -3.125 78.3125 C-3.21155389 80.61395818 -3.29878775 82.9153909 -3.38671875 85.21679688 C-3.59899044 90.81093001 -3.80223682 96.40533742 -4 102 C-10.72705662 102.77702721 -17.3618891 103.16106909 -24.13134766 103.20532227 C-25.56731293 103.22017166 -25.56731293 103.22017166 -27.0322876 103.23532104 C-30.15952176 103.26661189 -33.28677105 103.29156363 -36.4140625 103.31640625 C-38.59695809 103.33700386 -40.77984995 103.35800102 -42.96273804 103.37937927 C-48.6803686 103.43431024 -54.39803341 103.48384612 -60.11572266 103.53222656 C-65.96129366 103.58265447 -71.80681554 103.6382289 -77.65234375 103.69335938 C-89.10152044 103.80058602 -100.55073996 103.90210833 -112 104 C-112.6233333 100.53348954 -113.12582713 97.20509911 -113.14526367 93.68212891 C-113.15164352 92.8875528 -113.15802338 92.09297668 -113.16459656 91.27432251 C-113.16626579 90.0131813 -113.16626579 90.0131813 -113.16796875 88.7265625 C-113.17129715 87.84398773 -113.17462555 86.96141296 -113.17805481 86.05209351 C-113.1831004 84.1913098 -113.18546387 82.33051711 -113.18530273 80.46972656 C-113.18748755 77.64112258 -113.2056639 74.81291003 -113.22460938 71.984375 C-113.22754423 70.16927216 -113.22952841 68.35416747 -113.23046875 66.5390625 C-113.23765427 65.70235016 -113.24483978 64.86563782 -113.25224304 64.00357056 C-113.22195855 56.12018551 -112.1496007 49.28454559 -107 43 C-104.45408303 40.70376763 -101.75855571 38.65802027 -99 36.625 C-98.24106445 36.05628174 -97.48212891 35.48756348 -96.70019531 34.90161133 C-86.5155387 27.32556179 -75.87942239 20.53525256 -65 14 C-64.42459473 13.64873047 -63.84918945 13.29746094 -63.25634766 12.93554688 C-42.84739555 0.51319658 -23.36720275 -0.37740544 0 0 Z " fill="#A6A7A2" transform="translate(242,35)"/>
<path d="M0 0 C0 0.66 0 1.32 0 2 C0.71671875 1.65839844 1.4334375 1.31679688 2.171875 0.96484375 C15.29063705 -3.51075601 37.71028282 8.04321696 49.50927734 13.74462891 C55.16392612 16.59467831 60.70466084 19.66635171 66.21362305 22.78735352 C75.95867442 28.26459161 84.46200007 31.46534499 95.625 32.5625 C109.2512 33.94473887 109.2512 33.94473887 115 37 C116.56434838 39.57500416 117.26123931 41.17467816 118 44 C118.339104 45.23073242 118.339104 45.23073242 118.68505859 46.48632812 C119.40223041 49.23124459 120.05279677 51.98491825 120.6875 54.75 C121.02491211 56.16732422 121.02491211 56.16732422 121.36914062 57.61328125 C123 64.58285049 123 64.58285049 123 68 C123.94875 68.268125 124.8975 68.53625 125.875 68.8125 C129 70 129 70 131 73 C131.0087515 75.75964108 130.90847414 78.38374209 130.6875 81.125 C130.63480957 81.88748047 130.58211914 82.64996094 130.52783203 83.43554688 C130.23806924 87.46987035 129.86235024 91.48423404 129.375 95.5 C129.189375 97.2325 129.189375 97.2325 129 99 C129.33 99.33 129.66 99.66 130 100 C130.125 103.5 130.125 103.5 130 107 C127.57616482 109.42383518 121.40570963 108.53354865 118.125 108.71875 C115.1350199 108.65135448 115.1350199 108.65135448 114 110 C102.85715001 111.80875922 91.24203451 111.097535 80 111 C79.96132813 109.24236328 79.96132813 109.24236328 79.921875 107.44921875 C79.56048758 96.10358774 78.9852907 85.2063289 70.78125 76.5 C63.86718996 70.67763365 57.1381994 68.81964485 48.25 68.8125 C47.46367187 68.80025391 46.67734375 68.78800781 45.8671875 68.77539062 C40.83050337 68.76284075 36.79524235 69.49501288 32 71 C29.5625 70.625 29.5625 70.625 28 70 C28.66 70 29.32 70 30 70 C30 69.01 30 68.02 30 67 C32.97 66.01 35.94 65.02 39 64 C39.04958399 58.55567744 39.08580666 53.11148751 39.10986328 47.66699219 C39.11989631 45.81638294 39.13352586 43.96578945 39.15087891 42.11523438 C39.17524608 39.4491791 39.18651023 36.78333416 39.1953125 34.1171875 C39.20563507 33.29507782 39.21595764 32.47296814 39.22659302 31.62594604 C39.22765654 26.13199376 38.83099027 21.39437189 35.375 16.875 C28.53887818 11.47806172 15.89242837 6 7 6 C7.60473145 6.19110352 8.20946289 6.38220703 8.83251953 6.57910156 C11.5998756 7.4596962 14.36236734 8.35470238 17.125 9.25 C18.07632813 9.55035156 19.02765625 9.85070313 20.0078125 10.16015625 C26.49675031 12.27807345 32.51874065 14.57531763 37 20 C38.18681726 23.56045177 38.09689832 26.43808337 38.0625 30.1875 C38.05347656 31.45980469 38.04445313 32.73210937 38.03515625 34.04296875 C38.02355469 35.01878906 38.01195312 35.99460938 38 37 C29.08838625 37.39633604 20.17657457 37.78780262 11.26449203 38.17345428 C7.12397734 38.35277107 2.98354252 38.53361709 -1.15673828 38.71826172 C-36.33539553 40.2850455 -36.33539553 40.2850455 -53 40 C-53 39.34 -53 38.68 -53 38 C-49.535 37.505 -49.535 37.505 -46 37 C-44.47992953 25.34120707 -43.52201871 13.74542107 -43 2 C-14.64207904 1.79361047 -14.64207904 1.79361047 -4 3 C-5.32 2.34 -6.64 1.68 -8 1 C-5.07175348 0.02391783 -3.04386724 -0.08226668 0 0 Z " fill="#A4A4A0" transform="translate(297,33)"/>
<path d="M0 0 C0.92039063 -0.01546875 1.84078125 -0.0309375 2.7890625 -0.046875 C13.75204023 0.01488825 22.70921859 4.31510027 30.625 11.8125 C34.68240869 16.0228487 37.81137894 19.90646038 38.25 25.9375 C38.1675 26.783125 38.085 27.62875 38 28.5 C38.66 28.5 39.32 28.5 40 28.5 C40.51362215 30.62174864 41.01011858 32.74764455 41.5 34.875 C41.7784375 36.05835938 42.056875 37.24171875 42.34375 38.4609375 C42.96242947 41.59341407 43.06858573 44.56120157 43.04101562 47.75244141 C43.03213318 49.08995956 43.03213318 49.08995956 43.02307129 50.45449829 C43.01545776 51.12951385 43.00784424 51.80452942 43 52.5 C44.19266983 52.43148331 45.38533966 52.36296661 46.614151 52.29237366 C65.55728233 51.29590496 84.50398266 51.2802857 103.46772265 51.19667697 C108.28294735 51.17450115 113.09814369 51.14727015 117.91334534 51.12062073 C126.99321771 51.07111369 136.07310619 51.02602284 145.15300947 50.98259836 C155.50644809 50.93286223 165.85985821 50.87808148 176.21326911 50.82291877 C197.47548608 50.70974508 218.73773037 50.60277063 240 50.5 C239.989758 49.61068787 239.97951599 48.72137573 239.96896362 47.80511475 C239.96099762 46.63676086 239.95303162 45.46840698 239.94482422 44.26464844 C239.93458221 43.1072113 239.92434021 41.94977417 239.91378784 40.75726318 C240.16423368 31.29493167 244.56661393 20.46164065 251 13.5 C251.66 13.5 252.32 13.5 253 13.5 C253 12.84 253 12.18 253 11.5 C255.16015625 9.84375 255.16015625 9.84375 258.0625 8 C259.00222656 7.3915625 259.94195312 6.783125 260.91015625 6.15625 C270.00133489 1.28310241 281.88568369 0.89447186 291.890625 3.15234375 C300.02856047 6.46727201 306.33279766 12.60141035 310 20.5 C311.97123201 26.13913157 312.24829935 31.05232711 312.125 36.9375 C312.11597656 37.76443359 312.10695313 38.59136719 312.09765625 39.44335938 C312.07431512 41.46236708 312.03845288 43.48122356 312 45.5 C315.3 45.5 318.6 45.5 322 45.5 C322 45.83 322 46.16 322 46.5 C321.03578125 46.5515625 320.0715625 46.603125 319.078125 46.65625 C312.09106472 46.94141455 312.09106472 46.94141455 306.3203125 50.23828125 C305.38168195 52.29783837 304.67245251 54.34063385 304 56.5 C300.16589413 62.46416468 294.22754094 66.10772744 287.8125 68.875 C278.15351118 70.45844079 268.55964389 70.74487983 260 65.5 C254.16754631 61.15861145 249.9082896 57.69757056 248 50.5 C246.98094511 50.98638474 246.98094511 50.98638474 245.94130325 51.48259544 C242.4525445 52.6893663 239.63128962 52.76214204 235.93914795 52.7784729 C234.88960745 52.7871615 234.88960745 52.7871615 233.81886411 52.79602563 C231.4791306 52.8129992 229.13959475 52.81590027 226.79980469 52.81884766 C225.11863729 52.82815043 223.43747449 52.83831963 221.75631714 52.84928894 C217.18430515 52.87663485 212.61232413 52.89176383 208.04025173 52.90471697 C203.22432942 52.92040785 198.40846863 52.94720288 193.59259033 52.9727478 C184.434567 53.01961327 175.27653159 53.05628363 166.11844945 53.08942068 C155.82942605 53.12718497 145.54047187 53.17690756 135.25150442 53.22740483 C114.92776117 53.32646961 94.6039781 53.42139365 74.28006577 53.47781456 C69.39607779 53.49160752 64.51214601 53.51068442 59.62819266 53.5336076 C56.53092565 53.5471517 53.43365625 53.55649688 50.33637094 53.56470561 C48.89863239 53.56936299 47.46089822 53.57574449 46.02317572 53.58398175 C44.06505192 53.59494338 42.10689348 53.59908588 40.14874268 53.60287476 C39.05160572 53.60716681 37.95446877 53.61145885 36.82408524 53.61588097 C34.36830802 53.51511282 32.33941853 53.2146531 30 52.5 C29.62875 53.61181641 29.62875 53.61181641 29.25 54.74609375 C26.47447405 60.86092436 20.3498808 65.19240551 14.375 68 C6.48160024 70.75837995 -3.14086084 71.08538083 -10.9375 67.875 C-18.07562068 64.05004477 -24.882774 59.52314293 -27.6796875 51.56640625 C-28.17157864 49.89195492 -28.59271611 48.1970162 -29 46.5 C-32.67840889 48.77307664 -32.67840889 48.77307664 -36 51.5 C-38.33297433 51.54092937 -40.66705225 51.54241723 -43 51.5 C-43 51.17 -43 50.84 -43 50.5 C-40.525 50.005 -40.525 50.005 -38 49.5 C-38.02320313 48.72398437 -38.04640625 47.94796875 -38.0703125 47.1484375 C-38.30498789 33.10143909 -37.73608434 21.02004699 -27.95703125 10.25 C-19.77848373 2.37543389 -11.20053789 -0.18824433 0 0 Z " fill="#2F2E32" transform="translate(65,98.5)"/>
<path d="M0 0 C0.74451416 0.07460449 1.48902832 0.14920898 2.25610352 0.22607422 C5.79762719 0.63418193 7.72678135 1.0470209 10.75 3.0625 C9.1 3.3925 7.45 3.7225 5.75 4.0625 C5.75 3.4025 5.75 2.7425 5.75 2.0625 C4.1 2.3925 2.45 2.7225 0.75 3.0625 C2.4 3.7225 4.05 4.3825 5.75 5.0625 C5.75 5.3925 5.75 5.7225 5.75 6.0625 C4.82445312 6.00191406 3.89890625 5.94132812 2.9453125 5.87890625 C-10.44355205 5.03370548 -23.8438046 4.54333575 -37.25 4.0625 C-37.22679687 5.16464844 -37.20359375 6.26679687 -37.1796875 7.40234375 C-37.06311552 15.54340566 -37.21955117 23.53347098 -38.1875 31.625 C-38.27435059 32.3564624 -38.36120117 33.0879248 -38.45068359 33.84155273 C-39.10939275 38.92189275 -39.10939275 38.92189275 -40.25 40.0625 C-42.58297433 40.10342937 -44.91705225 40.10491723 -47.25 40.0625 C-47.25 40.7225 -47.25 41.3825 -47.25 42.0625 C-46.52290833 42.02491577 -45.79581665 41.98733154 -45.04669189 41.9486084 C-38.05087439 41.58828424 -31.05473758 41.23507525 -24.05820084 40.88904572 C-20.46487233 40.71109976 -16.87170108 40.53079653 -13.27880859 40.34423828 C5.7528497 39.3581708 24.68702486 38.840354 43.75 39.0625 C43.70206299 38.03664795 43.65412598 37.0107959 43.60473633 35.95385742 C43.49039714 33.5069987 43.37605794 31.06013997 43.26171875 28.61328125 C42.6184328 24.14956425 41.69542351 21.61072684 38.1105957 18.7578125 C33.10007252 15.38939355 27.88888602 13.54469714 22.125 11.875 C20.48690171 11.38176758 18.8488791 10.88828374 17.2109375 10.39453125 C16.44749023 10.16846191 15.68404297 9.94239258 14.89746094 9.70947266 C12.16162751 8.88523907 9.45387888 7.985669 6.75 7.0625 C11.19070113 5.66836214 14.6249727 6.90494124 18.9375 8.25 C20.07989136 8.59792603 20.07989136 8.59792603 21.24536133 8.95288086 C39.87407568 14.74861352 39.87407568 14.74861352 44.75 22.0625 C45.87566015 26.14179255 45.87906849 30.08946192 45.8828125 34.3046875 C45.88376923 34.99128448 45.88472595 35.67788147 45.88571167 36.38528442 C45.88638962 37.83254081 45.88456228 39.2798003 45.88037109 40.72705078 C45.87503384 42.92357342 45.88032065 45.11989006 45.88671875 47.31640625 C45.88605758 48.72916711 45.88477561 50.14192785 45.8828125 51.5546875 C45.88168457 52.82683105 45.88055664 54.09897461 45.87939453 55.40966797 C45.75061912 59.04502203 45.43930057 62.490288 44.75 66.0625 C43 67.41015625 43 67.41015625 40.75 68.125 C29.39202609 72.39776161 21.00784031 80.0680424 15.75 91.0625 C14.79947713 94.00422892 14.13231564 96.97576903 13.5 100 C13.24089844 101.16885742 13.24089844 101.16885742 12.9765625 102.36132812 C12.55734337 104.2594592 12.1521833 106.16068643 11.75 108.0625 C-26.59238607 108.90824875 -64.90734154 109.1970743 -103.25909424 109.13116455 C-109.39015338 109.12169421 -115.52121442 109.1172803 -121.6522789 109.11282361 C-135.51819688 109.10261534 -149.38409729 109.08525608 -163.25 109.0625 C-163.95599507 105.86199486 -164.38104566 102.87440534 -164.41113281 99.59863281 C-164.42074036 98.74714661 -164.4303479 97.8956604 -164.44024658 97.01837158 C-164.44449646 96.10996521 -164.44874634 95.20155884 -164.453125 94.265625 C-164.45882507 93.31741882 -164.46452515 92.36921265 -164.47039795 91.39227295 C-164.47982669 89.3884797 -164.48637347 87.38467109 -164.49023438 85.38085938 C-164.49992215 82.33695975 -164.53095864 79.29374086 -164.5625 76.25 C-164.56903271 74.29687898 -164.57428213 72.34375316 -164.578125 70.390625 C-164.5904718 69.49031555 -164.6028186 68.5900061 -164.61553955 67.66241455 C-164.58565491 59.05784383 -162.78678766 51.6664118 -156.7734375 45.28515625 C-151.37647871 40.53148821 -145.38604534 36.55448334 -139.43261719 32.53662109 C-137.43807864 31.18952671 -135.45589248 29.82632266 -133.4765625 28.45703125 C-126.52593836 23.68914697 -119.39396387 19.2662639 -112.125 15 C-111.31885254 14.52232178 -110.51270508 14.04464355 -109.68212891 13.55249023 C-102.66319953 9.49673048 -102.66319953 9.49673048 -98.25 9.0625 C-98.25 8.4025 -98.25 7.7425 -98.25 7.0625 C-99.9 7.0625 -101.55 7.0625 -103.25 7.0625 C-84.9364122 -11.2510878 -23.187531 -2.42778985 0 0 Z M-143.25 37.0625 C-144.31178467 37.81007568 -144.31178467 37.81007568 -145.39501953 38.57275391 C-156.21276601 46.09716728 -156.21276601 46.09716728 -161.78759766 57.60253906 C-162.36112889 61.89403045 -162.39314647 66.08202285 -162.3828125 70.40625 C-162.38376923 71.29356812 -162.38472595 72.18088623 -162.38571167 73.09509277 C-162.38638977 74.96427481 -162.38456135 76.83345925 -162.38037109 78.70263672 C-162.37501763 81.55311403 -162.38032866 84.4034338 -162.38671875 87.25390625 C-162.3860579 89.07552118 -162.3847766 90.89713601 -162.3828125 92.71875 C-162.38483673 93.56578491 -162.38686096 94.41281982 -162.38894653 95.28552246 C-162.38579437 96.08655396 -162.38264221 96.88758545 -162.37939453 97.71289062 C-162.37859894 98.40983032 -162.37780334 99.10677002 -162.37698364 99.8248291 C-162.21857019 102.61634742 -161.74576647 105.31297833 -161.25 108.0625 C-148.64504264 107.95472707 -136.04013955 107.84203996 -123.43528175 107.72316074 C-117.58170997 107.66810708 -111.72813305 107.61471619 -105.87451172 107.56518555 C-100.22050248 107.51728175 -94.56654996 107.46493148 -88.9126091 107.40955925 C-86.76058753 107.38925296 -84.60855048 107.37052146 -82.45650101 107.35342598 C-79.43139331 107.32912025 -76.40639019 107.2991044 -73.38134766 107.26782227 C-72.50092804 107.2620668 -71.62050842 107.25631134 -70.71340942 107.25038147 C-64.84591729 107.1818696 -59.07855429 106.73574322 -53.25 106.0625 C-53.22704298 105.41788598 -53.20408596 104.77327196 -53.18043327 104.10912418 C-52.96449627 98.05619877 -52.73743952 92.00374335 -52.50537109 85.95141602 C-52.41947505 83.67742283 -52.33608014 81.40333358 -52.25537109 79.12915039 C-51.84146178 67.51158457 -51.41723055 56.03417218 -49.55029297 44.54711914 C-49.45119629 43.72719482 -49.35209961 42.90727051 -49.25 42.0625 C-50.37534105 40.70631501 -50.37534105 40.70631501 -53.3125 41 C-54.281875 41.020625 -55.25125 41.04125 -56.25 41.0625 C-55.46512351 36.852871 -54.67090344 32.64505693 -53.875 28.4375 C-53.65328125 27.24769531 -53.4315625 26.05789062 -53.203125 24.83203125 C-52.98398438 23.67832031 -52.76484375 22.52460937 -52.5390625 21.3359375 C-52.34006348 20.27810059 -52.14106445 19.22026367 -51.93603516 18.13037109 C-51.25 15.0625 -51.25 15.0625 -50.16943359 11.98291016 C-49.2757151 9.14417923 -49.07650309 7.01194749 -49.25 4.0625 C-88.15297885 3.43417508 -111.82385296 14.71148703 -143.25 37.0625 Z " fill="#A5A6A2" transform="translate(291.25,30.9375)"/>
<path d="M0 0 C-0.67488415 6.49575998 -1.99325658 12.71265274 -3.5 19.0625 C-4.90979721 25.02795621 -6.25687789 30.91146542 -7 37 C-5.02 37 -3.04 37 -1 37 C-1 37.66 -1 38.32 -1 39 C-1.67190872 39.02283554 -2.34381744 39.04567108 -3.03608704 39.06919861 C-10.12723999 39.31054787 -17.21830462 39.55438182 -24.30932617 39.79956055 C-26.94406574 39.89053802 -29.57883348 39.98053267 -32.21362305 40.07006836 C-50.33169638 40.67610447 -50.33169638 40.67610447 -68.4375 41.5625 C-76.19224705 42.00386265 -83.91913548 42.12017489 -91.6875 42.0625 C-92.88955078 42.05798828 -94.09160156 42.05347656 -95.33007812 42.04882812 C-98.22011111 42.03731405 -101.11002374 42.02106633 -104 42 C-92.37868219 29.98011714 -77.16499323 20.73855206 -62.625 12.625 C-61.90038574 12.22031494 -61.17577148 11.81562988 -60.42919922 11.39868164 C-40.64222683 0.56166881 -22.18504421 -0.35831231 0 0 Z " fill="#C6D6E2" transform="translate(242,35)"/>
<path d="M0 0 C24.83529054 -0.57136405 58.15343438 -0.799591 78.5625 16.125 C81.47899969 19.92913003 81.10486716 23.5694793 81.0625 28.1875 C81.05347656 29.45980469 81.04445313 30.73210937 81.03515625 32.04296875 C81.02355469 33.01878906 81.01195312 33.99460938 81 35 C72.08838625 35.39633604 63.17657457 35.78780262 54.26449203 36.17345428 C50.12397734 36.35277107 45.98354252 36.53361709 41.84326172 36.71826172 C6.66460447 38.2850455 6.66460447 38.2850455 -10 38 C-10 37.34 -10 36.68 -10 36 C-6.535 35.505 -6.535 35.505 -3 35 C-1.47992953 23.34120707 -0.52201871 11.74542107 0 0 Z " fill="#C5D7E2" transform="translate(254,35)"/>
<path d="M0 0 C6.13551437 3.034412 10.70343143 6.82405106 13.9375 12.921875 C16.18655995 20.02268063 15.54051416 26.41890986 12.5 33.171875 C8.88596692 39.85783619 4.09644369 43.53556044 -3.0625 45.921875 C-10.43070114 46.63624353 -16.78564258 46.65655914 -23.125 42.54296875 C-28.67657253 37.89800383 -32.52762448 32.12475509 -33.27734375 24.83203125 C-33.56384648 18.12786735 -31.9048042 13.01694606 -28.5 7.296875 C-20.2827818 -0.70964529 -11.17888735 -3.93542463 0 0 Z " fill="#B9B6B6" transform="translate(75.0625,113.078125)"/>
<path d="M0 0 C5.43982176 3.07582813 11.29897387 7.96355612 13.44140625 14.015625 C14.74618204 22.67008718 13.96050288 28.91790464 8.75 36.0625 C4.3111419 41.61107263 -1.21695595 44.59049224 -8.25390625 45.4140625 C-14.18634066 45.57740863 -19.15513682 45.35917617 -24.25 42.0625 C-26.89184986 39.24967447 -29.10274309 36.26396573 -31.25 33.0625 C-31.889375 32.11375 -32.52875 31.165 -33.1875 30.1875 C-35.23706622 24.15936407 -34.94226734 18.2850425 -33.0625 12.25 C-25.9624644 -0.23626951 -13.89143415 -6.22645426 0 0 Z " fill="#B9B6B5" transform="translate(352.25,113.9375)"/>
<path d="M0 0 C1.6875 1.31640625 1.6875 1.31640625 4.0625 3.69140625 C4.0625 4.35140625 4.0625 5.01140625 4.0625 5.69140625 C4.7225 5.69140625 5.3825 5.69140625 6.0625 5.69140625 C6.0625 6.35140625 6.0625 7.01140625 6.0625 7.69140625 C6.7225 7.69140625 7.3825 7.69140625 8.0625 7.69140625 C11.8570903 16.78825889 13.07281794 24.91716756 12.0625 34.69140625 C11.0390625 37.12890625 11.0390625 37.12890625 10.0625 38.69140625 C10.7225 38.69140625 11.3825 38.69140625 12.0625 38.69140625 C12.0625 39.35140625 12.0625 40.01140625 12.0625 40.69140625 C11.4025 40.69140625 10.7425 40.69140625 10.0625 40.69140625 C9.815 41.43261719 9.5675 42.17382812 9.3125 42.9375 C6.53697405 49.05233061 0.4123808 53.38381176 -5.5625 56.19140625 C-13.45589976 58.9497862 -23.07836084 59.27678708 -30.875 56.06640625 C-39.36646368 51.51626345 -45.86993512 46.14973129 -48.9375 36.69140625 C-48.9375 35.70140625 -48.9375 34.71140625 -48.9375 33.69140625 C-49.5975 33.36140625 -50.2575 33.03140625 -50.9375 32.69140625 C-50.6173442 22.7665763 -49.34910158 13.59610129 -44.3125 4.87890625 C-31.80748601 -6.63886979 -14.76767614 -9.9741361 0 0 Z M-39.5 12.31640625 C-42.94157527 17.87362412 -43.68232163 23.23628549 -42.9375 29.69140625 C-40.76102824 36.88322598 -36.97443414 43.12501949 -30.4375 47.06640625 C-24.000821 49.94469478 -16.78888704 49.79029309 -10.08984375 47.87890625 C-2.64470502 44.64481884 0.89454329 39.41472086 4.19921875 32.21484375 C5.99873016 26.95473347 5.88541648 21.05553374 3.8125 15.87890625 C-0.22844913 8.51860606 -5.0513334 4.67084326 -12.9375 1.69140625 C-24.12804392 -0.33469942 -32.97227899 2.95794367 -39.5 12.31640625 Z " fill="#2B2A2F" transform="translate(84.9375,110.30859375)"/>
<path d="M0 0 C0.66 1.32 1.32 2.64 2 4 C1.43152344 4.4125 0.86304688 4.825 0.27734375 5.25 C-4.58107045 8.88367206 -8.66182664 12.59147285 -12.4921875 17.30078125 C-14 19 -14 19 -17 21 C-17.73343428 24.06556598 -17.73343428 24.06556598 -18 27 C-14.7 27.33 -11.4 27.66 -8 28 C-13 38 -13 38 -14.125 39.875 C-15.48076214 43.16756519 -15.64643737 46.46437371 -16 50 C-15.34 49.34 -14.68 48.68 -14 48 C-13.93941406 48.96421875 -13.87882812 49.9284375 -13.81640625 50.921875 C-13.69072266 52.81679687 -13.69072266 52.81679687 -13.5625 54.75 C-13.44068359 56.62945312 -13.44068359 56.62945312 -13.31640625 58.546875 C-13.07484478 61.18317553 -12.75716066 63.48037294 -12 66 C-14.37570543 66.0816082 -16.74855841 66.14077222 -19.125 66.1875 C-19.79015625 66.21263672 -20.4553125 66.23777344 -21.140625 66.26367188 C-27.03221724 66.35031294 -30.80869609 64.72997677 -35.375 61.125 C-37.4065079 58.46841275 -37.39994516 57.27955031 -37 54 C-36.80535156 53.28585938 -36.61070313 52.57171875 -36.41015625 51.8359375 C-35.7779016 47.4643482 -36.72372114 43.27780753 -37.50390625 38.97070312 C-38.2632621 34.02551534 -37.84733761 31.13541891 -35 27 C-33.67564632 26.31566854 -32.34313399 25.64669414 -31 25 C-30.08385878 22.86746334 -30.08385878 22.86746334 -29.625 20.375 C-27.69350281 13.21709866 -24.22712116 8.20894371 -18 4.125 C-11.86961 0.67665563 -6.95459206 -0.23981352 0 0 Z " fill="#A3A49F" transform="translate(40,83)"/>
<path d="M0 0 C0.92039063 -0.01546875 1.84078125 -0.0309375 2.7890625 -0.046875 C13.75204023 0.01488825 22.70921859 4.31510027 30.625 11.8125 C34.68240869 16.0228487 37.81137894 19.90646038 38.25 25.9375 C38.1675 26.783125 38.085 27.62875 38 28.5 C38.66 28.5 39.32 28.5 40 28.5 C42.13480153 36.23865554 42.20483028 43.50023956 42 51.5 C37.05 51.995 37.05 51.995 32 52.5 C32 51.84 32 51.18 32 50.5 C31.34 50.5 30.68 50.5 30 50.5 C30.15984375 49.984375 30.3196875 49.46875 30.484375 48.9375 C32.56859094 39.08484283 30.96025873 28.96225557 28 19.5 C27.34 19.5 26.68 19.5 26 19.5 C26 18.84 26 18.18 26 17.5 C25.34 17.5 24.68 17.5 24 17.5 C22.9171875 16.38625 22.9171875 16.38625 21.8125 15.25 C15.32170313 8.90344306 9.07065682 7.31561889 0.1875 7.25 C-0.49892578 7.229375 -1.18535156 7.20875 -1.89257812 7.1875 C-8.40779472 7.13818899 -13.43580685 9.07838355 -18.75 12.9375 C-19.57757813 13.52337891 -19.57757813 13.52337891 -20.421875 14.12109375 C-27.31877588 20.14734626 -29.06695887 29.90120053 -29.8125 38.625 C-30.19587986 42.72050362 -30.19587986 42.72050362 -29 46.5 C-29.969375 47.139375 -30.93875 47.77875 -31.9375 48.4375 C-34.76036269 50.1965259 -34.76036269 50.1965259 -36 51.5 C-38.33297433 51.54092937 -40.66705225 51.54241723 -43 51.5 C-43 51.17 -43 50.84 -43 50.5 C-40.525 50.005 -40.525 50.005 -38 49.5 C-38.02320313 48.72398437 -38.04640625 47.94796875 -38.0703125 47.1484375 C-38.30498789 33.10143909 -37.73608434 21.02004699 -27.95703125 10.25 C-19.77848373 2.37543389 -11.20053789 -0.18824433 0 0 Z " fill="#0C0C0E" transform="translate(65,98.5)"/>
<path d="M0 0 C5.58768763 0.56749953 10.661149 1.58749102 16 3.3125 C16.69843018 3.53615234 17.39686035 3.75980469 18.11645508 3.99023438 C25.42987987 6.3884706 31.9936427 8.81567628 37 15 C38.88368955 19.55646451 39.24641588 23.43156592 39.23046875 28.33984375 C39.23001053 29.02502579 39.22955231 29.71020782 39.2290802 30.41615295 C39.22607526 31.85744979 39.21824204 33.29874388 39.20581055 34.73999023 C39.18758173 36.9276908 39.18530109 39.1149658 39.18554688 41.30273438 C39.14099284 54.0610695 39.14099284 54.0610695 38 60 C36.25 61.34765625 36.25 61.34765625 34 62.0625 C22.64202609 66.33526161 14.25784031 74.0055424 9 85 C8.04947713 87.94172892 7.38231564 90.91326903 6.75 93.9375 C6.49089844 95.10635742 6.49089844 95.10635742 6.2265625 96.29882812 C5.80734337 98.1969592 5.4021833 100.09818643 5 102 C-33.34238607 102.84574875 -71.65734154 103.1345743 -110.00909424 103.06866455 C-116.14015338 103.05919421 -122.27121442 103.0547803 -128.4022789 103.05032361 C-142.26819688 103.04011534 -156.13409729 103.02275608 -170 103 C-170.70599507 99.79949486 -171.13104566 96.81190534 -171.16113281 93.53613281 C-171.17074036 92.68464661 -171.1803479 91.8331604 -171.19024658 90.95587158 C-171.19449646 90.04746521 -171.19874634 89.13905884 -171.203125 88.203125 C-171.20882507 87.25491882 -171.21452515 86.30671265 -171.22039795 85.32977295 C-171.22982669 83.3259797 -171.23637347 81.32217109 -171.24023438 79.31835938 C-171.24992215 76.27445975 -171.28095864 73.23124086 -171.3125 70.1875 C-171.31903271 68.23437898 -171.32428213 66.28125316 -171.328125 64.328125 C-171.3404718 63.42781555 -171.3528186 62.5275061 -171.36553955 61.59991455 C-171.33565491 52.99534383 -169.53678766 45.6039118 -163.5234375 39.22265625 C-158.12647871 34.46898821 -152.13604534 30.49198334 -146.18261719 26.47412109 C-144.18807864 25.12702671 -142.20589248 23.76382266 -140.2265625 22.39453125 C-133.23153427 17.59559459 -126.05158828 13.1298349 -118.75 8.8125 C-117.92709473 8.31806396 -117.10418945 7.82362793 -116.25634766 7.31420898 C-115.48597168 6.86634033 -114.7155957 6.41847168 -113.921875 5.95703125 C-113.23706055 5.55460205 -112.55224609 5.15217285 -111.84667969 4.73754883 C-110 4 -110 4 -107 5 C-107.52094238 5.28496338 -108.04188477 5.56992676 -108.57861328 5.86352539 C-122.96674766 13.78467757 -136.62059953 22.47723737 -150 32 C-150.71317383 32.50370117 -151.42634766 33.00740234 -152.16113281 33.52636719 C-153.99663806 34.83276691 -155.81458296 36.15912679 -157.625 37.5 C-158.58664063 38.2115625 -159.54828125 38.923125 -160.5390625 39.65625 C-165.78614473 44.65347117 -167.82797287 50.11501399 -168.0826416 57.34674072 C-168.11576303 60.18752496 -168.11236179 63.02625022 -168.09765625 65.8671875 C-168.0962413 66.90191193 -168.09482635 67.93663635 -168.09336853 69.00271606 C-168.08779039 72.29350732 -168.07524188 75.58422946 -168.0625 78.875 C-168.05748218 81.11197818 -168.05291976 83.34895743 -168.04882812 85.5859375 C-168.03782812 91.05731508 -168.02111177 96.5286526 -168 102 C-167.02301651 101.93148331 -166.04603302 101.86296661 -165.03944397 101.79237366 C-153.16971415 101.00341282 -141.32653639 100.78750943 -129.43359375 100.68359375 C-127.41764461 100.66296154 -125.40169918 100.64196375 -123.38575745 100.62062073 C-118.14005587 100.5660457 -112.89431959 100.5163583 -107.64855957 100.46777344 C-102.27153521 100.41707958 -96.8945598 100.36164633 -91.51757812 100.30664062 C-81.01176079 100.19985182 -70.50590053 100.09823891 -60 100 C-60.00196381 99.11394073 -60.00392761 98.22788147 -60.00595093 97.31497192 C-60.0123989 93.98049831 -60.01707141 90.64603146 -60.02059937 87.31155396 C-60.02246784 85.87718602 -60.02501353 84.44281878 -60.02828979 83.00845337 C-60.10063971 50.4836213 -60.10063971 50.4836213 -57 38 C-56.01 37.01 -56.01 37.01 -55 36 C-54.73601745 43.77281966 -55.16232158 51.27118405 -55.9375 59 C-57.14437807 72.63062285 -57.52842001 86.32418023 -58 100 C-37.87 100 -17.74 100 3 100 C3.66 95.71 4.32 91.42 5 87 C9.12034664 76.38218366 16.8945804 67.34325833 27 62 C28.55007784 61.44653875 30.10896025 60.91735573 31.67407227 60.40795898 C32.48425308 60.14280991 33.2944339 59.87766083 34.12916565 59.60447693 C35.05522865 59.30526085 35.05522865 59.30526085 36 59 C36.07427668 53.3949675 36.12866208 47.79022289 36.16479492 42.18481445 C36.17986128 40.27883919 36.20031824 38.37289848 36.22631836 36.46704102 C36.26279642 33.72403424 36.27974792 30.98148672 36.29296875 28.23828125 C36.30845261 27.38913651 36.32393646 26.53999176 36.33988953 25.66511536 C36.34122503 20.94735874 36.10785322 17.80041476 33 14 C27.92667606 9.62496657 21.70355294 7.64577129 15.375 5.8125 C13.73690171 5.31926758 12.0988791 4.82578374 10.4609375 4.33203125 C9.69749023 4.10596191 8.93404297 3.87989258 8.14746094 3.64697266 C5.41162751 2.82273907 2.70387888 1.923169 0 1 C0 0.67 0 0.34 0 0 Z " fill="#72736F" transform="translate(298,37)"/>
<path d="M0 0 C0.74451416 0.07460449 1.48902832 0.14920898 2.25610352 0.22607422 C5.79762719 0.63418193 7.72678135 1.0470209 10.75 3.0625 C9.1 3.3925 7.45 3.7225 5.75 4.0625 C5.75 3.4025 5.75 2.7425 5.75 2.0625 C4.1 2.3925 2.45 2.7225 0.75 3.0625 C2.4 3.7225 4.05 4.3825 5.75 5.0625 C5.75 5.3925 5.75 5.7225 5.75 6.0625 C3.0205414 5.92106168 0.29151877 5.77450471 -2.4375 5.625 C-3.20642578 5.58568359 -3.97535156 5.54636719 -4.76757812 5.50585938 C-8.68251075 5.28742966 -12.42120688 4.97557892 -16.25 4.0625 C-16.25 3.7325 -16.25 3.4025 -16.25 3.0625 C-12.95 2.7325 -9.65 2.4025 -6.25 2.0625 C-7.4875 1.85625 -8.725 1.65 -10 1.4375 C-10.69609375 1.32148437 -11.3921875 1.20546875 -12.109375 1.0859375 C-14.26359073 0.87805575 -14.26359073 0.87805575 -15.91064453 2.03955078 C-19.17274968 3.46599835 -22.32019968 3.38051993 -25.8203125 3.40625 C-26.56604019 3.42010239 -27.31176788 3.43395477 -28.08009338 3.44822693 C-29.68064062 3.47787417 -31.28126223 3.5037063 -32.88192749 3.52609253 C-37.07680512 3.58735223 -41.27075373 3.68434225 -45.46484375 3.78515625 C-46.30120865 3.80518204 -47.13757355 3.82520782 -47.99928284 3.84584045 C-55.32906342 4.03612021 -62.62605237 4.43465386 -69.9375 5 C-70.94893066 5.07476562 -71.96036133 5.14953125 -73.00244141 5.2265625 C-79.20029828 5.73859131 -85.18161441 6.71236502 -91.25 8.0625 C-92.22195312 8.27132812 -93.19390625 8.48015625 -94.1953125 8.6953125 C-94.91460937 8.85773437 -95.63390625 9.02015625 -96.375 9.1875 C-98.293125 9.620625 -98.293125 9.620625 -100.25 10.0625 C-99.59 9.7325 -98.93 9.4025 -98.25 9.0625 C-98.25 8.4025 -98.25 7.7425 -98.25 7.0625 C-99.9 7.0625 -101.55 7.0625 -103.25 7.0625 C-84.9364122 -11.2510878 -23.187531 -2.42778985 0 0 Z " fill="#848683" transform="translate(291.25,30.9375)"/>
<path d="M0 0 C3.63 0 7.26 0 11 0 C10.49761154 11.42272701 9.5890677 22.67596413 8 34 C3.71 34 -0.58 34 -5 34 C-4.7254852 22.14096057 -3.33673233 11.39144899 0 0 Z " fill="#34404B" transform="translate(242,36)"/>
<path d="M0 0 C0 0.66 0 1.32 0 2 C-1.40185547 2.65742187 -1.40185547 2.65742187 -2.83203125 3.328125 C-10.67360321 7.08337231 -18.20415829 11.17708864 -25.5625 15.8125 C-26.76543701 16.56756836 -26.76543701 16.56756836 -27.99267578 17.33789062 C-31.82140029 19.790388 -35.47458125 22.31186233 -38.9765625 25.21484375 C-47.05911209 31.87019684 -52.4113392 34.33720759 -63.02734375 33.38671875 C-64.00832031 33.25910156 -64.98929688 33.13148437 -66 33 C-64.52777201 28.69555931 -61.51547341 27.27867461 -57.68359375 25.3125 C-57.0433728 24.97286728 -56.40315186 24.63323456 -55.74353027 24.28330994 C-53.64778557 23.1764369 -51.54339223 22.08742726 -49.4375 21 C-47.98818963 20.24325115 -46.53905349 19.48616854 -45.09008789 18.72875977 C-40.73850904 16.46259397 -36.37161961 14.22720772 -32 12 C-31.3512793 11.6684491 -30.70255859 11.33689819 -30.03417969 10.99530029 C-26.01711666 8.94468551 -21.98389491 6.9298359 -17.9375 4.9375 C-16.92937256 4.43154297 -15.92124512 3.92558594 -14.88256836 3.40429688 C-9.64818631 0.87997753 -5.82992 -0.63878458 0 0 Z " fill="#A4A5A2" transform="translate(193,38)"/>
<path d="M0 0 C6.10444973 4.29712817 10.85253546 8.4101871 13.88671875 15.328125 C14.81201617 21.03209661 15.01420507 26.55933957 14.94921875 32.328125 C14.94470703 33.10285156 14.94019531 33.87757813 14.93554688 34.67578125 C14.92391633 36.55993024 14.90598781 38.44403865 14.88671875 40.328125 C13.56671875 40.328125 12.24671875 40.328125 10.88671875 40.328125 C10.92152344 39.49410156 10.95632813 38.66007812 10.9921875 37.80078125 C11.25027415 27.07175066 9.4989711 18.93579078 2.88671875 10.328125 C0.48812831 7.99181752 0.48812831 7.99181752 -2.11328125 6.328125 C-2.85578125 5.77125 -3.59828125 5.214375 -4.36328125 4.640625 C-12.13075986 0.9334193 -23.39279674 1.38251404 -31.67578125 3.078125 C-35.66152699 4.52748709 -35.45245364 4.78844607 -37.11328125 8.328125 C-38.83984375 10.25 -38.83984375 10.25 -40.73828125 12.078125 C-41.68574219 12.99851562 -41.68574219 12.99851562 -42.65234375 13.9375 C-43.13445312 14.39640625 -43.6165625 14.8553125 -44.11328125 15.328125 C-44.77328125 14.998125 -45.43328125 14.668125 -46.11328125 14.328125 C-46.11328125 12.678125 -46.11328125 11.028125 -46.11328125 9.328125 C-45.12328125 8.998125 -44.13328125 8.668125 -43.11328125 8.328125 C-43.11328125 7.668125 -43.11328125 7.008125 -43.11328125 6.328125 C-40.953125 4.671875 -40.953125 4.671875 -38.05078125 2.828125 C-37.11105469 2.2196875 -36.17132813 1.61125 -35.203125 0.984375 C-25.60004535 -4.16316706 -9.81615492 -5.47699017 0 0 Z " fill="#151517" transform="translate(361.11328125,103.671875)"/>
<path d="M0 0 C0.66 1.32 1.32 2.64 2 4 C-2.79992025 7.87534545 -7.60804677 11.74110947 -12.5 15.5 C-13.1290625 15.9846875 -13.758125 16.469375 -14.40625 16.96875 C-16 18 -16 18 -18 18 C-18 18.66 -18 19.32 -18 20 C-22.89795918 24.89795918 -22.89795918 24.89795918 -27.375 25.3125 C-28.24125 25.209375 -29.1075 25.10625 -30 25 C-29.74338745 17.94315498 -27.70476039 13.30265702 -23 8 C-15.81784162 1.98494235 -9.27888284 -0.31996148 0 0 Z " fill="#C1D0DA" transform="translate(40,83)"/>
<path d="M0 0 C1.8125 0.0625 1.8125 0.0625 4 1 C7.71019984 7.82676771 10.29523896 16.2113151 10 24 C-5.01428508 22.89207566 -5.01428508 22.89207566 -8.9375 19.3125 C-11 16 -11 16 -12 12.5 C-10.79290235 8.27515822 -9.76973264 7.80744402 -6.125 5.5625 C-1.42819843 3 -1.42819843 3 1 3 C0.67 2.01 0.34 1.02 0 0 Z " fill="#AE2330" transform="translate(408,69)"/>
<path d="M0 0 C-0.33 0.66 -0.66 1.32 -1 2 C3.29 2.33 7.58 2.66 12 3 C12 3.33 12 3.66 12 4 C10.22496094 4.03867188 10.22496094 4.03867188 8.4140625 4.078125 C-4.21929187 4.4752153 -13.55530722 5.69956703 -23.0234375 14.81640625 C-29.85537737 22.36394457 -31.03625602 30.05998939 -32 40 C-32.11085938 41.02996094 -32.22171875 42.05992187 -32.3359375 43.12109375 C-32.57649575 45.41289867 -32.79900685 47.70444664 -33 50 C-33.33 50 -33.66 50 -34 50 C-34.33 46.04 -34.66 42.08 -35 38 C-35.99 38.495 -35.99 38.495 -37 39 C-36.71831703 37.04020573 -36.42433283 35.08217622 -36.125 33.125 C-35.96257813 32.03445312 -35.80015625 30.94390625 -35.6328125 29.8203125 C-35 27 -35 27 -33 25 C-32.690625 24.21625 -32.38125 23.4325 -32.0625 22.625 C-31.00983103 20.02428842 -29.76321255 18.16394268 -28 16 C-30.31 16 -32.62 16 -35 16 C-35 15.34 -35 14.68 -35 14 C-35.66 14 -36.32 14 -37 14 C-37 12.68 -37 11.36 -37 10 C-31.72 10 -26.44 10 -21 10 C-21 9.34 -21 8.68 -21 8 C-20.34 8 -19.68 8 -19 8 C-19 7.34 -19 6.68 -19 6 C-17.41925436 5.18247697 -15.83528777 4.37118003 -14.25 3.5625 C-12.92742188 2.88380859 -12.92742188 2.88380859 -11.578125 2.19140625 C-7.57288659 0.34050062 -4.39903712 -0.12219548 0 0 Z " fill="#9D928C" transform="translate(60,95)"/>
<path d="M0 0 C0.66 0 1.32 0 2 0 C3.09506492 3.28519475 3.09960608 5.73663415 3.0625 9.1875 C3.05347656 10.27417969 3.04445313 11.36085938 3.03515625 12.48046875 C3.02355469 13.31191406 3.01195312 14.14335938 3 15 C-0.21868591 16.0728953 -2.78673683 16.23491804 -6.17358398 16.38891602 C-8.08849892 16.4788961 -8.08849892 16.4788961 -10.042099 16.57069397 C-11.44342089 16.6319867 -12.84475278 16.6930512 -14.24609375 16.75390625 C-15.69606123 16.8194902 -17.14601733 16.88532599 -18.59596252 16.95140076 C-21.64824789 17.08948371 -24.70065246 17.22441737 -27.75317383 17.35717773 C-31.6049271 17.52495029 -35.456277 17.70050324 -39.30757713 17.87833595 C-55.20845994 18.60914642 -71.07756327 19.25465073 -87 19 C-87 18.34 -87 17.68 -87 17 C-68.68493521 15.30047214 -50.3847114 14.46628949 -32.00610352 13.93554688 C-28.49155891 13.83267811 -24.97723893 13.72261719 -21.46289062 13.61328125 C-14.64212341 13.4020792 -7.82115087 13.19841691 -1 13 C-0.19510911 9.98096289 0.10855119 7.38148111 0.0625 4.25 C0.05347656 3.45078125 0.04445313 2.6515625 0.03515625 1.828125 C0.02355469 1.22484375 0.01195312 0.6215625 0 0 Z " fill="#E7EFF3" transform="translate(331,54)"/>
<path d="M0 0 C-2.45518735 1.50537035 -4.9138452 3.00444426 -7.375 4.5 C-8.07367188 4.92925781 -8.77234375 5.35851563 -9.4921875 5.80078125 C-14.7734375 9 -14.7734375 9 -17 9 C-17.33 9.99 -17.66 10.98 -18 12 C-20.80078125 13.71875 -20.80078125 13.71875 -24.3125 15.5 C-28.14334424 17.45617578 -31.56855491 19.42445311 -35 22 C-35.66 22 -36.32 22 -37 22 C-37.25007813 22.61488281 -37.50015625 23.22976562 -37.7578125 23.86328125 C-39.21428336 26.36859433 -40.27589622 26.9860275 -42.875 28.1875 C-43.89207031 28.67283203 -43.89207031 28.67283203 -44.9296875 29.16796875 C-46.93810364 29.97512467 -48.88939815 30.53150318 -51 31 C-51 31.66 -51 32.32 -51 33 C-49.68 33.33 -48.36 33.66 -47 34 C-49.97 34 -52.94 34 -56 34 C-44.29038658 21.88879334 -28.95116682 12.62349928 -14.3125 4.4375 C-13.54599121 4.00767822 -12.77948242 3.57785645 -11.98974609 3.13500977 C-11.2673877 2.73854248 -10.5450293 2.3420752 -9.80078125 1.93359375 C-9.16309814 1.58353271 -8.52541504 1.23347168 -7.8684082 0.87280273 C-2.8980612 -1.4490306 -2.8980612 -1.4490306 0 0 Z " fill="#DEE5E8" transform="translate(194,43)"/>
<path d="M0 0 C0 0.66 0 1.32 0 2 C-61.46074923 4.41989451 -61.46074923 4.41989451 -92 4 C-89.56519406 1.56519406 -88.84410407 1.71548868 -85.49487305 1.58935547 C-84.08075134 1.52953491 -84.08075134 1.52953491 -82.63806152 1.46850586 C-81.60636841 1.4350708 -80.57467529 1.40163574 -79.51171875 1.3671875 C-77.89952454 1.30470825 -77.89952454 1.30470825 -76.25476074 1.2409668 C-72.73263672 1.10836146 -69.21020781 0.99098199 -65.6875 0.875 C-63.27840025 0.78926575 -60.86930195 0.70349086 -58.46020508 0.61767578 C-38.96944304 -0.04867086 -19.49960973 -0.24218489 0 0 Z " fill="#E2EAEE" transform="translate(241,72)"/>
<path d="M0 0 C0.33 0 0.66 0 1 0 C1.26356633 7.76056428 0.84528519 15.28718109 0.0625 23 C-1.31083238 36.65082685 -1.60820785 50.28727473 -2 64 C9.55 64 21.1 64 33 64 C33 64.33 33 64.66 33 65 C17.49 65 1.98 65 -14 65 C-14 64.67 -14 64.34 -14 64 C-10.7 64 -7.4 64 -4 64 C-4.00523682 63.15518066 -4.01047363 62.31036133 -4.01586914 61.43994141 C-4.29987884 8.59975767 -4.29987884 8.59975767 0 0 Z " fill="#7C7D79" transform="translate(242,73)"/>
<path d="M0 0 C1.65 0 3.3 0 5 0 C4.47627752 4.20045249 3.94297448 8.3995449 3.40087891 12.59765625 C3.21792029 14.02505724 3.03755349 15.45279298 2.85986328 16.88085938 C2.60354413 18.9371404 2.33783354 20.99202507 2.0703125 23.046875 C1.91320801 24.28276367 1.75610352 25.51865234 1.59423828 26.79199219 C1.07188208 29.6119431 0.45446262 31.55991253 -1 34 C-2.32 34 -3.64 34 -5 34 C-4.7254852 22.14096057 -3.33673233 11.39144899 0 0 Z " fill="#394550" transform="translate(242,36)"/>
<path d="M0 0 C11.45652856 0.35883703 22.90978906 0.71825219 34.3125 1.9375 C35.05161621 2.01210449 35.79073242 2.08670898 36.55224609 2.16357422 C40.07927599 2.57217825 41.98801696 2.9920113 45 5 C43.35 5.33 41.7 5.66 40 6 C40 5.34 40 4.68 40 4 C38.35 4.33 36.7 4.66 35 5 C37.475 5.99 37.475 5.99 40 7 C40 7.33 40 7.66 40 8 C37.2705414 7.85856168 34.54151877 7.71200471 31.8125 7.5625 C30.65911133 7.50352539 30.65911133 7.50352539 29.48242188 7.44335938 C25.56748925 7.22492966 21.82879312 6.91307892 18 6 C18 5.67 18 5.34 18 5 C21.3 4.67 24.6 4.34 28 4 C26.7625 3.79375 25.525 3.5875 24.25 3.375 C23.20585937 3.20097656 23.20585937 3.20097656 22.140625 3.0234375 C19.96478311 2.82918041 19.96478311 2.82918041 18.14129639 3.98434448 C15.74779864 5.11962366 14.23132693 5.24253722 11.59863281 5.22705078 C10.3077475 5.22682419 10.3077475 5.22682419 8.99078369 5.22659302 C8.07085632 5.21627045 7.15092896 5.20594788 6.203125 5.1953125 C5.25435486 5.1924826 4.30558472 5.18965271 3.32806396 5.18673706 C0.30191361 5.17555448 -2.7239393 5.1504533 -5.75 5.125 C-7.80338114 5.11496772 -9.85676692 5.1058423 -11.91015625 5.09765625 C-16.94021854 5.07562141 -21.97005886 5.04110462 -27 5 C-27 4.67 -27 4.34 -27 4 C-13.635 3.01 -13.635 3.01 0 2 C0 1.34 0 0.68 0 0 Z " fill="#7D7E7D" transform="translate(257,29)"/>
<path d="M0 0 C5.58768763 0.56749953 10.661149 1.58749102 16 3.3125 C17.04764526 3.64797852 17.04764526 3.64797852 18.11645508 3.99023438 C25.42987987 6.3884706 31.9936427 8.81567628 37 15 C38.88368955 19.55646451 39.24641588 23.43156592 39.23046875 28.33984375 C39.23001053 29.02502579 39.22955231 29.71020782 39.2290802 30.41615295 C39.22607526 31.85744979 39.21824204 33.29874388 39.20581055 34.73999023 C39.18758173 36.9276908 39.18530109 39.1149658 39.18554688 41.30273438 C39.1634577 47.6281116 39.01064787 53.73801571 38 60 C37.01 59.505 37.01 59.505 36 59 C36.02356567 57.221698 36.02356567 57.221698 36.04760742 55.4074707 C36.10199565 50.999988 36.13638246 46.59253485 36.16479492 42.18481445 C36.17986128 40.27883919 36.20031824 38.37289848 36.22631836 36.46704102 C36.26279642 33.72403424 36.27974792 30.98148672 36.29296875 28.23828125 C36.30845261 27.38913651 36.32393646 26.53999176 36.33988953 25.66511536 C36.34122503 20.94735874 36.10785322 17.80041476 33 14 C27.92667606 9.62496657 21.70355294 7.64577129 15.375 5.8125 C13.73690171 5.31926758 12.0988791 4.82578374 10.4609375 4.33203125 C9.69749023 4.10596191 8.93404297 3.87989258 8.14746094 3.64697266 C5.41162751 2.82273907 2.70387888 1.923169 0 1 C0 0.67 0 0.34 0 0 Z " fill="#7B7D7A" transform="translate(298,37)"/>
<path d="M0 0 C0.66 0.33 1.32 0.66 2 1 C1.68417969 1.85851562 1.36835938 2.71703125 1.04296875 3.6015625 C-1.38038838 11.49789471 -1.42770746 19.90965774 0 28 C-2.90600261 29.25664978 -4.79604584 30 -8 30 C-8.57078167 22.47836602 -8.06972053 15.93834861 -5.6875 8.8125 C-5.36809448 7.84171509 -5.36809448 7.84171509 -5.04223633 6.85131836 C-3.78963312 3.35102717 -3.18550393 2.12366928 0 0 Z " fill="#2F3031" transform="translate(313,119)"/>
<path d="M0 0 C-0.09765625 1.7890625 -0.09765625 1.7890625 -1 4 C-3.80859375 5.7109375 -3.80859375 5.7109375 -7.4375 7.375 C-8.71906388 7.97704079 -9.99900697 8.58254326 -11.27734375 9.19140625 C-11.9101123 9.49191895 -12.54288086 9.79243164 -13.19482422 10.10205078 C-15.72353088 11.35990622 -18.10559181 12.81736572 -20.5 14.3125 C-23.90905322 16.42206263 -27.090398 17.97115737 -31 19 C-30.13796394 15.33265048 -29.58638418 13.4470961 -26.54150391 11.12548828 C-25.02435791 10.35567627 -25.02435791 10.35567627 -23.4765625 9.5703125 C-22.373125 9.003125 -21.2696875 8.4359375 -20.1328125 7.8515625 C-18.97523438 7.28179687 -17.81765625 6.71203125 -16.625 6.125 C-15.47515625 5.53203125 -14.3253125 4.9390625 -13.140625 4.328125 C-4.58410138 0 -4.58410138 0 0 0 Z " fill="#B6C0C6" transform="translate(169,48)"/>
<path d="M0 0 C3.55881418 1.82503291 5.13749977 3.96428538 7.4375 7.25 C7.4375 8.24 7.4375 9.23 7.4375 10.25 C4.15230525 11.34506492 1.70086585 11.34960608 -1.75 11.3125 C-3.38001953 11.29896484 -3.38001953 11.29896484 -5.04296875 11.28515625 C-5.87441406 11.27355469 -6.70585937 11.26195312 -7.5625 11.25 C-8.2265625 8.9609375 -8.2265625 8.9609375 -8.5625 6.25 C-6.62272137 2.8225716 -3.94936789 0.38530418 0 0 Z " fill="#3C3A3E" transform="translate(342.5625,143.75)"/>
<path d="M0 0 C0 4 0 4 -1.4609375 5.484375 C-2.09257812 5.90203125 -2.72421875 6.3196875 -3.375 6.75 C-4.31472656 7.39195313 -4.31472656 7.39195313 -5.2734375 8.046875 C-7 9 -7 9 -9 9 C-9 9.66 -9 10.32 -9 11 C-9.5775 11.556875 -10.155 12.11375 -10.75 12.6875 C-16.83759515 18.94419502 -18.67969866 26.79255112 -21 35 C-23.3178963 31.52315555 -23.18281346 30.89212797 -22.5 26.9375 C-20.20860208 15.94459098 -13.23528774 7.33759147 -4.125 1 C-2 0 -2 0 0 0 Z " fill="#919290" transform="translate(327,101)"/>
<path d="M0 0 C1.73828125 1.42578125 1.73828125 1.42578125 3.3125 3.3125 C3.84488281 3.92738281 4.37726563 4.54226562 4.92578125 5.17578125 C5.45751953 6.07876953 5.45751953 6.07876953 6 7 C5.67 7.99 5.34 8.98 5 10 C1.85069107 11.04976964 -0.38814456 11.10131595 -3.6875 11.0625 C-4.68136719 11.05347656 -5.67523438 11.04445312 -6.69921875 11.03515625 C-7.83810547 11.01775391 -7.83810547 11.01775391 -9 11 C-9.66796875 8.70703125 -9.66796875 8.70703125 -10 6 C-8.92578125 4.19921875 -8.92578125 4.19921875 -7.3125 2.6875 C-6.53326172 1.91986328 -6.53326172 1.91986328 -5.73828125 1.13671875 C-4 0 -4 0 0 0 Z " fill="#2C2B2F" transform="translate(68,144)"/>
<path d="M0 0 C4.34871974 0.50177535 6.95603922 3.02522015 10 6 C10 7.32 10 8.64 10 10 C7.25 12.75 7.25 12.75 4 15 C2.68 15 1.36 15 0 15 C-1.23689062 12.52621876 -1.13310087 10.82084683 -1.125 8.0625 C-1.12757812 7.18722656 -1.13015625 6.31195313 -1.1328125 5.41015625 C-1 3 -1 3 0 0 Z " fill="#363438" transform="translate(48,128)"/>
<path d="M0 0 C1.44207941 2.88415883 1.09394887 5.41721528 1.0625 8.625 C1.05347656 9.81351563 1.04445313 11.00203125 1.03515625 12.2265625 C1.02355469 13.14179688 1.01195312 14.05703125 1 15 C-2.95348885 14.50101597 -4.73300684 14.21018611 -7.9375 11.6875 C-10 9 -10 9 -10.1875 7 C-7.82763062 3.02548315 -4.70143212 0 0 0 Z " fill="#323036" transform="translate(360,128)"/>
<path d="M0 0 C0 4.62 0 9.24 0 14 C-1.32 14.33 -2.64 14.66 -4 15 C-5.921875 13.78515625 -5.921875 13.78515625 -7.75 12.0625 C-8.36359375 11.49660156 -8.9771875 10.93070313 -9.609375 10.34765625 C-10.06828125 9.90292969 -10.5271875 9.45820313 -11 9 C-9.94872669 3.07233846 -5.92577122 0 0 0 Z " fill="#353438" transform="translate(85,128)"/>
<path d="M0 0 C4.31701959 0.31977923 7.02301121 3.09067005 10 6 C10 10 10 10 8.57421875 11.484375 C7.95160156 11.90203125 7.32898438 12.3196875 6.6875 12.75 C5.76517578 13.39195312 5.76517578 13.39195312 4.82421875 14.046875 C3 15 3 15 0 15 C-1.37252731 12.25494537 -1.13229255 9.99672588 -1.125 6.9375 C-1.12757813 5.85339844 -1.13015625 4.76929688 -1.1328125 3.65234375 C-1 1 -1 1 0 0 Z " fill="#363539" transform="translate(324,128)"/>
<path d="M0 0 C2.12493141 -0.02693575 4.24995912 -0.04636628 6.375 -0.0625 C7.55835938 -0.07410156 8.74171875 -0.08570312 9.9609375 -0.09765625 C13 0 13 0 15 1 C13.33248852 4.94139078 10.77289351 7.7892812 8 11 C4.57893924 10.74658809 3.69217816 9.69217816 1.1875 7.1875 C-1 4 -1 4 -0.63671875 1.80078125 C-0.42660156 1.20652344 -0.21648437 0.61226563 0 0 Z " fill="#343236" transform="translate(335,117)"/>
<path d="M0 0 C38.19463407 -0.87871091 38.19463407 -0.87871091 51 5 C51 5.33 51 5.66 51 6 C45.09092122 6.15479364 39.68642053 5.57183351 33.875 4.5625 C22.95104498 2.77753323 12.05198928 2.28692055 1 2 C0.67 1.34 0.34 0.68 0 0 Z " fill="#E0E8EC" transform="translate(254,35)"/>
<path d="M0 0 C4.29 0 8.58 0 13 0 C14 4 14 4 13.00390625 5.703125 C11.66927083 7.13541667 10.33463542 8.56770833 9 10 C5.43056285 9.69404824 3.96985581 8.97575359 1.125 6.6875 C0.42375 5.800625 -0.2775 4.91375 -1 4 C-0.67 2.68 -0.34 1.36 0 0 Z " fill="#312F34" transform="translate(59,117)"/>
<path d="M0 0 C0 0.33 0 0.66 0 1 C-11.33674078 2.1778432 -22.61609403 2.09674708 -34 2 C-34 7.94 -34 13.88 -34 20 C-34.33 20 -34.66 20 -35 20 C-35 14.39 -35 8.78 -35 3 C-36.69125 3.020625 -38.3825 3.04125 -40.125 3.0625 C-44.19883799 3.06775657 -48.00181841 2.8644717 -52 2 C-52 1.67 -52 1.34 -52 1 C-37.15 0.505 -37.15 0.505 -22 0 C-22 -0.33 -22 -0.66 -22 -1 C-14.24272966 -2.11032496 -7.62854246 -1.78540355 0 0 Z " fill="#B8C0C5" transform="translate(288,33)"/>
<path d="M0 0 C3.3 0 6.6 0 10 0 C9.07586348 2.37222545 8.15169213 4.70076358 7 6.97265625 C2.81145414 15.72606264 2.6828858 25.46458249 2 35 C1.67 35 1.34 35 1 35 C0.67 31.04 0.34 27.08 0 23 C-0.66 23.33 -1.32 23.66 -2 24 C-1.71831703 22.04020573 -1.42433283 20.08217622 -1.125 18.125 C-0.96257813 17.03445312 -0.80015625 15.94390625 -0.6328125 14.8203125 C0 12 0 12 2 10 C2.309375 9.21625 2.61875 8.4325 2.9375 7.625 C3.99016897 5.02428842 5.23678745 3.16394268 7 1 C4.69 1 2.38 1 0 1 C0 0.67 0 0.34 0 0 Z " fill="#9E928C" transform="translate(25,110)"/>
<path d="M0 0 C0 0.66 0 1.32 0 2 C-1.71509766 2.84884766 -1.71509766 2.84884766 -3.46484375 3.71484375 C-4.95578138 4.45562408 -6.44666396 5.19651522 -7.9375 5.9375 C-8.69224609 6.31068359 -9.44699219 6.68386719 -10.22460938 7.06835938 C-10.94326172 7.42607422 -11.66191406 7.78378906 -12.40234375 8.15234375 C-13.39995728 8.6472229 -13.39995728 8.6472229 -14.41772461 9.15209961 C-15.99619363 9.89977008 -15.99619363 9.89977008 -17 11 C-18.66617115 11.04063832 -20.33388095 11.042721 -22 11 C-22.33 10.34 -22.66 9.68 -23 9 C-20.3881395 5.9375016 -17.36062636 4.51285311 -13.75 2.8125 C-12.65171875 2.28269531 -11.5534375 1.75289062 -10.421875 1.20703125 C-6.72959873 -0.09538127 -3.88521596 -0.22187147 0 0 Z " fill="#ACB3B5" transform="translate(193,38)"/>
<path d="M0 0 C0 0.33 0 0.66 0 1 C2.475 1.495 2.475 1.495 5 2 C5 2.33 5 2.66 5 3 C-9.01324648 3.75573446 -22.96667632 4.13698472 -37 4 C-37 3.34 -37 2.68 -37 2 C-33.08401182 1.65837319 -29.16712818 1.32827575 -25.25 1 C-24.15816406 0.90460938 -23.06632812 0.80921875 -21.94140625 0.7109375 C-14.60876502 0.10349976 -7.35665341 -0.11978269 0 0 Z " fill="#DEE5EA" transform="translate(281,69)"/>
<path d="M0 0 C0.33 0 0.66 0 1 0 C1.20046927 7.14329131 0.6387135 13.9420417 -0.4375 21 C-0.57220703 21.93972656 -0.70691406 22.87945312 -0.84570312 23.84765625 C-1.85893654 30.71787309 -1.85893654 30.71787309 -3 33 C-1.02 33 0.96 33 3 33 C3 33.33 3 33.66 3 34 C0.03 34 -2.94 34 -6 34 C-5.26777265 29.10383979 -4.53411688 24.20790767 -3.796875 19.3125 C-3.32045378 16.14689553 -2.84991064 12.98063362 -2.390625 9.8125 C-2.22046875 8.6575 -2.0503125 7.5025 -1.875 6.3125 C-1.72804687 5.29800781 -1.58109375 4.28351562 -1.4296875 3.23828125 C-1 1 -1 1 0 0 Z " fill="#29333D" transform="translate(247,36)"/>
<path d="M0 0 C-4.69565217 2.86956522 -4.69565217 2.86956522 -7.1875 3.9375 C-9.14009562 4.85636803 -9.14009562 4.85636803 -9.88671875 6.83203125 C-11.1523324 9.2966473 -12.63464958 10.83336627 -14.625 12.75 C-15.57246094 13.67039062 -15.57246094 13.67039062 -16.5390625 14.609375 C-17.02117187 15.06828125 -17.50328125 15.5271875 -18 16 C-18.66 15.67 -19.32 15.34 -20 15 C-20 13.35 -20 11.7 -20 10 C-19.01 9.67 -18.02 9.34 -17 9 C-17 8.34 -17 7.68 -17 7 C-14.6640625 5.30859375 -14.6640625 5.30859375 -11.625 3.4375 C-10.62726563 2.81746094 -9.62953125 2.19742188 -8.6015625 1.55859375 C-5.02004489 -0.58709022 -3.9828045 -1.19484135 0 0 Z " fill="#202022" transform="translate(335,103)"/>
<path d="M0 0 C5.61 0 11.22 0 17 0 C17 0.66 17 1.32 17 2 C19.64 2 22.28 2 25 2 C25 2.33 25 2.66 25 3 C21.05338862 3.16973431 17.10650899 3.33002717 13.15917969 3.48217773 C11.16842416 3.56078534 9.1779543 3.64652429 7.1875 3.73242188 C0.02197908 4.00384312 -6.89210888 4.00508222 -14 3 C-14 2.67 -14 2.34 -14 2 C-9.38 2 -4.76 2 0 2 C0 1.34 0 0.68 0 0 Z " fill="#A5A5A2" transform="translate(240,29)"/>
<path d="M0 0 C0 0.66 0 1.32 0 2 C0.69480469 1.65195312 1.38960938 1.30390625 2.10546875 0.9453125 C5.60891618 -0.19886331 7.72006638 0.16440873 11.3125 0.875 C12.38113281 1.07867187 13.44976562 1.28234375 14.55078125 1.4921875 C15.35902344 1.65976562 16.16726563 1.82734375 17 2 C16.37609375 2.30550781 15.7521875 2.61101563 15.109375 2.92578125 C13.01236652 3.93842856 13.01236652 3.93842856 11.25 5.1875 C4.9886119 7.44855681 -2.02785932 3.99071356 -8 2 C-4.77208445 -0.1519437 -3.71599191 -0.20086443 0 0 Z " fill="#9D9E9B" transform="translate(297,33)"/>
<path d="M0 0 C0 3.8653713 -1.47905111 5.34432387 -3.7109375 8.37890625 C-7.81539413 16.72463474 -7.40038328 26.53738185 -7.625 35.625 C-7.66367188 36.91535156 -7.70234375 38.20570312 -7.7421875 39.53515625 C-7.83566342 42.6899687 -7.92142313 45.84478727 -8 49 C-8.33 49 -8.66 49 -9 49 C-9.07479497 44.46512356 -9.12890262 39.93061518 -9.16479492 35.39526367 C-9.17977543 33.85613745 -9.2001671 32.31705312 -9.22631836 30.77807617 C-9.57033078 9.99567881 -9.57033078 9.99567881 -2.8125 2.9375 C-2.28269531 2.36902344 -1.75289062 1.80054687 -1.20703125 1.21484375 C-0.80871094 0.81394531 -0.41039062 0.41304688 0 0 Z " fill="#6B6C68" transform="translate(136,75)"/>
<path d="M0 0 C1.8125 0.0625 1.8125 0.0625 4 1 C7.71019984 7.82676771 10.29523896 16.2113151 10 24 C7.03 23.67 4.06 23.34 1 23 C1 22.67 1 22.34 1 22 C3.31 22 5.62 22 8 22 C7.67 21.2575 7.34 20.515 7 19.75 C6 17 6 17 6 13 C5.34 13 4.68 13 4 13 C4 10.03 4 7.06 4 4 C2.35 4 0.7 4 -1 4 C-0.34 3.67 0.32 3.34 1 3 C0.67 2.01 0.34 1.02 0 0 Z " fill="#9A515A" transform="translate(408,69)"/>
<path d="M0 0 C0.33 0 0.66 0 1 0 C1.33 5.61 1.66 11.22 2 17 C2.66 17.33 3.32 17.66 4 18 C1.69 18.66 -0.62 19.32 -3 20 C-2.88581333 17.41577541 -2.75907638 14.83320487 -2.625 12.25 C-2.5940625 11.52039063 -2.563125 10.79078125 -2.53125 10.0390625 C-2.3251506 6.26057344 -2.08487157 3.22053332 0 0 Z " fill="#08090B" transform="translate(309,129)"/>
<path d="M0 0 C0 2.31 0 4.62 0 7 C-5.28 7 -10.56 7 -16 7 C-13.23776722 4.23776722 -10.79293383 4.42143709 -7 4 C-7 3.34 -7 2.68 -7 2 C-4 0 -4 0 0 0 Z " fill="#D1D3D5" transform="translate(427,133)"/>
<path d="M0 0 C5.20670288 0.31555775 8.57730756 3.30128397 12 7 C13.18681726 10.56045177 13.09689832 13.43808337 13.0625 17.1875 C13.05347656 18.45980469 13.04445313 19.73210937 13.03515625 21.04296875 C13.02355469 22.01878906 13.01195312 22.99460937 13 24 C11.68 23.67 10.36 23.34 9 23 C9.99 23 10.98 23 12 23 C11.67 18.05 11.34 13.1 11 8 C10.34 8 9.68 8 9 8 C9.33 8.66 9.66 9.32 10 10 C10.04022391 12.3329866 10.04320247 14.66706666 10 17 C9.67 17 9.34 17 9 17 C8.93683594 16.33613281 8.87367188 15.67226563 8.80859375 14.98828125 C8.17507039 9.64698896 8.17507039 9.64698896 5.30859375 5.29296875 C3.57760775 4.13548114 1.79140919 3.06157581 0 2 C0 1.34 0 0.68 0 0 Z " fill="#D4DADE" transform="translate(322,46)"/>
<path d="M0 0 C0 0.66 0 1.32 0 2 C-2.8933122 2.70004335 -5.78883001 3.3853242 -8.6875 4.0625 C-9.91243164 4.36124023 -9.91243164 4.36124023 -11.16210938 4.66601562 C-15.41009212 5.64631933 -18.72564505 6.38415975 -23 5 C-17.20775379 -0.79224621 -7.63772091 -0.39205031 0 0 Z " fill="#929490" transform="translate(211,33)"/>
<path d="M0 0 C4.95 0 9.9 0 15 0 C15 1.32 15 2.64 15 4 C9.72 4 4.44 4 -1 4 C-0.67 2.68 -0.34 1.36 0 0 Z " fill="#D4D7E0" transform="translate(309,80)"/>
<path d="M0 0 C4.95 0 9.9 0 15 0 C15 1.32 15 2.64 15 4 C9.72 4 4.44 4 -1 4 C-0.67 2.68 -0.34 1.36 0 0 Z " fill="#D3D7DD" transform="translate(216,82)"/>
<path d="M0 0 C5.61 0 11.22 0 17 0 C12 5 12 5 9.39453125 5.3046875 C8.54246094 5.16289063 7.69039062 5.02109375 6.8125 4.875 C5.95269531 4.74867187 5.09289062 4.62234375 4.20703125 4.4921875 C2 4 2 4 0 3 C0 2.01 0 1.02 0 0 Z " fill="#AA5033" transform="translate(23,106)"/>
<path d="M0 0 C2.13093906 1.06546953 3.36587557 2.29159719 5 4 C2.4378513 5.60473003 -0.12470555 7.20880182 -2.6875 8.8125 C-3.40873047 9.26431641 -4.12996094 9.71613281 -4.87304688 10.18164062 C-8.56196728 12.48932142 -12.25818621 14.7785287 -16 17 C-16 14 -16 14 -14.125 12.125 C-10.60519462 9.73153234 -6.98285225 7.99374251 -3.109375 6.24609375 C-0.67534167 5.11930247 -0.67534167 5.11930247 0 2 C-0.66 1.67 -1.32 1.34 -2 1 C-1.34 0.67 -0.68 0.34 0 0 Z " fill="#A2A6A5" transform="translate(169,46)"/>
<path d="M0 0 C2 2 2 2 2.1953125 5.9140625 C2.18200376 7.48449351 2.15813602 9.05486221 2.125 10.625 C2.11597656 11.42679688 2.10695313 12.22859375 2.09765625 13.0546875 C2.07406223 15.03658523 2.03819065 17.01832981 2 19 C0.68 19 -0.64 19 -2 19 C-2 13.39 -2 7.78 -2 2 C-1.34 2 -0.68 2 0 2 C0 1.34 0 0.68 0 0 Z " fill="#0D0C0F" transform="translate(374,125)"/>
<path d="M0 0 C-0.25390625 1.859375 -0.25390625 1.859375 -1 4 C-2.77734375 5.265625 -2.77734375 5.265625 -4.9375 6.25 C-6.00291016 6.75273438 -6.00291016 6.75273438 -7.08984375 7.265625 C-9 8 -9 8 -11 8 C-11 7.34 -11 6.68 -11 6 C-11.99 5.67 -12.98 5.34 -14 5 C-12.421924 4.15675328 -10.8372958 3.32576082 -9.25 2.5 C-8.36828125 2.0359375 -7.4865625 1.571875 -6.578125 1.09375 C-4 0 -4 0 0 0 Z " fill="#ABB5BB" transform="translate(169,48)"/>
<path d="M0 0 C0.33 0 0.66 0 1 0 C1.10920422 7.74136601 0.97159933 15.31395526 0 23 C-0.33 23 -0.66 23 -1 23 C-1.33 19.04 -1.66 15.08 -2 11 C-2.99 11.495 -2.99 11.495 -4 12 C-3.27272727 3.27272727 -3.27272727 3.27272727 0 0 Z " fill="#7F807E" transform="translate(27,122)"/>
<path d="M0 0 C-0.33 0.66 -0.66 1.32 -1 2 C3.29 2.33 7.58 2.66 12 3 C12 3.33 12 3.66 12 4 C4.41 4.33 -3.18 4.66 -11 5 C-9 1 -9 1 -7.1875 0.25 C-4.77172869 -0.02608815 -2.42947614 -0.06748545 0 0 Z " fill="#868885" transform="translate(60,95)"/>
<path d="M0 0 C0.33 0 0.66 0 1 0 C1.33 2.31 1.66 4.62 2 7 C2.33 7 2.66 7 3 7 C3.33 4.69 3.66 2.38 4 0 C4.33 0 4.66 0 5 0 C5.3690205 10.55808656 5.3690205 10.55808656 3 15 C2.34 14.34 1.68 13.68 1 13 C0.67 13.33 0.34 13.66 0 14 C-1.66617115 14.04063832 -3.33388095 14.042721 -5 14 C-4.67 13.34 -4.34 12.68 -4 12 C-3.01 12 -2.02 12 -1 12 C-0.67 8.04 -0.34 4.08 0 0 Z " fill="#9C999B" transform="translate(85,130)"/>
<path d="M0 0 C0 0.33 0 0.66 0 1 C-7.68483539 1.67453101 -15.28410183 2.1567564 -23 2 C-22.67 1.01 -22.34 0.02 -22 -1 C-14.24272966 -2.11032496 -7.62854246 -1.78540355 0 0 Z " fill="#A2A29F" transform="translate(288,33)"/>
<path d="M0 0 C7.09629025 -0.31461385 12.68284595 -0.44572039 19 3 C16.55420823 5.30925485 15.40557866 5.99001814 11.984375 6.07421875 C10.38335937 5.88279297 10.38335937 5.88279297 8.75 5.6875 C7.13351562 5.50767578 7.13351562 5.50767578 5.484375 5.32421875 C4.25460937 5.16373047 4.25460937 5.16373047 3 5 C3 4.67 3 4.34 3 4 C5.64 3.67 8.28 3.34 11 3 C11 2.67 11 2.34 11 2 C7.37 1.67 3.74 1.34 0 1 C0 0.67 0 0.34 0 0 Z " fill="#A19F9F" transform="translate(335,112)"/>
<path d="M0 0 C0.33 0 0.66 0 1 0 C1.33 1.65 1.66 3.3 2 5 C2.33 5 2.66 5 3 5 C3.33 3.35 3.66 1.7 4 0 C4.33 0 4.66 0 5 0 C5 3.96 5 7.92 5 12 C4.01 12.33 3.02 12.66 2 13 C0.21590198 9.93753253 -0.22880021 7.77920727 -0.125 4.25 C-0.10695312 3.45078125 -0.08890625 2.6515625 -0.0703125 1.828125 C-0.04710937 1.22484375 -0.02390625 0.6215625 0 0 Z " fill="#ABA8A8" transform="translate(42,131)"/>
<path d="M0 0 C0 0.66 0 1.32 0 2 C-0.99 2 -1.98 2 -3 2 C-3 2.66 -3 3.32 -3 4 C-5 5.625 -5 5.625 -7 7 C-6.67 9.64 -6.34 12.28 -6 15 C-8 13.9375 -8 13.9375 -10 12 C-10.75 8.625 -10.75 8.625 -10 5 C-7.20279299 2.46226242 -3.8761027 0 0 0 Z " fill="#A43F4A" transform="translate(407,73)"/>
<path d="M0 0 C0.99 0.33 1.98 0.66 3 1 C2.01 5.62 1.02 10.24 0 15 C-3.3 15 -6.6 15 -10 15 C-10 14.67 -10 14.34 -10 14 C-7.36 13.67 -4.72 13.34 -2 13 C-1.34 8.71 -0.68 4.42 0 0 Z " fill="#787974" transform="translate(303,124)"/>
<path d="M0 0 C0.59167969 0.21914062 1.18335937 0.43828125 1.79296875 0.6640625 C1.21546875 1.15777344 0.63796875 1.65148437 0.04296875 2.16015625 C-0.69953125 2.80082031 -1.44203125 3.44148437 -2.20703125 4.1015625 C-2.94953125 4.73964844 -3.69203125 5.37773437 -4.45703125 6.03515625 C-5.03453125 6.57269531 -5.61203125 7.11023438 -6.20703125 7.6640625 C-6.20703125 7.9940625 -6.20703125 8.3240625 -6.20703125 8.6640625 C-2.90703125 8.9940625 0.39296875 9.3240625 3.79296875 9.6640625 C3.79296875 9.9940625 3.79296875 10.3240625 3.79296875 10.6640625 C0.16296875 10.6640625 -3.46703125 10.6640625 -7.20703125 10.6640625 C-8.20703125 5.6640625 -8.20703125 5.6640625 -7.1328125 3.828125 C-6.60042969 3.32023438 -6.06804688 2.81234375 -5.51953125 2.2890625 C-5.00003906 1.76570312 -4.48054688 1.24234375 -3.9453125 0.703125 C-2.20703125 -0.3359375 -2.20703125 -0.3359375 0 0 Z " fill="#535154" transform="translate(66.20703125,144.3359375)"/>
<path d="M0 0 C-2.24353987 2.24353987 -3.85419177 2.80167078 -6.8125 3.875 C-10.79763289 5.40907431 -13.84183123 7.05237582 -17 10 C-17.66 9.67 -18.32 9.34 -19 9 C-14.13968719 4.31159536 -7.09131424 -2.36377141 0 0 Z " fill="#696967" transform="translate(335,97)"/>
<path d="M0 0 C-0.3125 1.875 -0.3125 1.875 -1 4 C-4.4352048 6.29013653 -5.985331 6.17842973 -10 6 C-9.01958581 3.54896452 -8.3486182 2.23241214 -6.125 0.75 C-4 0 -4 0 0 0 Z " fill="#B9C8D0" transform="translate(137,65)"/>
<path d="M0 0 C3.96 0 7.92 0 12 0 C11.67 0.99 11.34 1.98 11 3 C7.04 3 3.08 3 -1 3 C-0.67 2.01 -0.34 1.02 0 0 Z " fill="#C0BEBF" transform="translate(61,113)"/>
<path d="M0 0 C0.66 0.33 1.32 0.66 2 1 C2 2.32 2 3.64 2 5 C-0.12438339 5.08078641 -2.2496323 5.13909141 -4.375 5.1875 C-5.55835938 5.22230469 -6.74171875 5.25710937 -7.9609375 5.29296875 C-9.46527344 5.14794922 -9.46527344 5.14794922 -11 5 C-11.66 4.01 -12.32 3.02 -13 2 C-8.71 2.33 -4.42 2.66 0 3 C0 2.01 0 1.02 0 0 Z " fill="#A02D37" transform="translate(414,86)"/>
<path d="M0 0 C-0.33 1.32 -0.66 2.64 -1 4 C-0.01 3.67 0.98 3.34 2 3 C1.875 4.875 1.875 4.875 1 7 C-1.9375 8.3125 -1.9375 8.3125 -5 9 C-5.66 8.67 -6.32 8.34 -7 8 C-6.01 7.34 -5.02 6.68 -4 6 C-3.67 5.01 -3.34 4.02 -3 3 C-3.66 2.67 -4.32 2.34 -5 2 C-2 0 -2 0 0 0 Z " fill="#A8B0B3" transform="translate(140,62)"/>
<path d="M0 0 C2.125 0.375 2.125 0.375 4 1 C2.6875 2.5 2.6875 2.5 1 4 C0.01 4 -0.98 4 -2 4 C-2 4.66 -2 5.32 -2 6 C-0.68 6.33 0.64 6.66 2 7 C-0.97 7 -3.94 7 -7 7 C-4.66666667 4.66666667 -2.33333333 2.33333333 0 0 Z " fill="#E2E8EA" transform="translate(145,70)"/>
<path d="M0 0 C0.66 0.66 1.32 1.32 2 2 C-5.42857143 4.14285714 -5.42857143 4.14285714 -9 5 C-9 4.34 -9 3.68 -9 3 C-10.98 3 -12.96 3 -15 3 C-15 2.67 -15 2.34 -15 2 C-12.5431099 1.61144074 -10.08558167 1.23869912 -7.625 0.875 C-6.57699219 0.70677734 -6.57699219 0.70677734 -5.5078125 0.53515625 C-3.68212086 0.27183534 -1.8401238 0.1281884 0 0 Z " fill="#93938F" transform="translate(220,30)"/>
<path d="M0 0 C0.91007812 0.00902344 1.82015625 0.01804688 2.7578125 0.02734375 C3.45648438 0.03894531 4.15515625 0.05054688 4.875 0.0625 C4.875 0.3925 4.875 0.7225 4.875 1.0625 C2.565 1.3925 0.255 1.7225 -2.125 2.0625 C1.175 2.3925 4.475 2.7225 7.875 3.0625 C7.875 3.3925 7.875 3.7225 7.875 4.0625 C5.75006859 4.08943575 3.62504088 4.10886628 1.5 4.125 C0.31664063 4.13660156 -0.86671875 4.14820313 -2.0859375 4.16015625 C-5.125 4.0625 -5.125 4.0625 -7.125 3.0625 C-7.125 2.4025 -7.125 1.7425 -7.125 1.0625 C-4.60024538 -0.19987731 -2.81299534 -0.03606404 0 0 Z " fill="#AFAEAF" transform="translate(64.125,154.9375)"/>
<path d="M0 0 C0.66 0 1.32 0 2 0 C0.74194623 4.50802601 -0.90407165 7.4912812 -4 11 C-4.99 10.67 -5.98 10.34 -7 10 C-5.88321917 8.3278148 -4.75633648 6.66237197 -3.625 5 C-2.99851562 4.071875 -2.37203125 3.14375 -1.7265625 2.1875 C-1.15679687 1.465625 -0.58703125 0.74375 0 0 Z " fill="#4E4E50" transform="translate(370,148)"/>
<path d="M0 0 C0.66 0.33 1.32 0.66 2 1 C-3.94 6.445 -3.94 6.445 -10 12 C-10 9 -10 9 -7.8125 6.5625 C-5.28225355 4.25716434 -2.70944196 2.09014094 0 0 Z " fill="#201F22" transform="translate(50,108)"/>
<path d="M0 0 C0 0.99 0 1.98 0 3 C-1.96875 4.60546875 -1.96875 4.60546875 -4.5 6.1875 C-5.3353125 6.71730469 -6.170625 7.24710937 -7.03125 7.79296875 C-7.6809375 8.19128906 -8.330625 8.58960937 -9 9 C-9.66 8.67 -10.32 8.34 -11 8 C-7.85214347 4.5823272 -5.41881673 2.47293891 -1 1 C-0.67 0.67 -0.34 0.34 0 0 Z " fill="#E8EEF1" transform="translate(166,57)"/>
<path d="M0 0 C0.66 0.33 1.32 0.66 2 1 C1.67 3.97 1.34 6.94 1 10 C0.01 10.33 -0.98 10.66 -2 11 C-2.28571429 3.57142857 -2.28571429 3.57142857 0 0 Z " fill="#C1BEBE" transform="translate(45,127)"/>
<path d="M0 0 C-0.33 0.66 -0.66 1.32 -1 2 C-4.96 2 -8.92 2 -13 2 C-9.55192297 -1.44807703 -4.50554126 -1.62199485 0 0 Z " fill="#C1BFC0" transform="translate(73,156)"/>
<path d="M0 0 C0.66 0.33 1.32 0.66 2 1 C0.89902432 2.12812303 -0.20591556 3.25237811 -1.3125 4.375 C-1.92738281 5.00148438 -2.54226562 5.62796875 -3.17578125 6.2734375 C-5 8 -5 8 -8 10 C-8.99 9.67 -9.98 9.34 -11 9 C-10.01 8.67 -9.02 8.34 -8 8 C-8 7.34 -8 6.68 -8 6 C-6.02678947 4.6273318 -4.02456848 3.29572383 -2 2 C-1.34 1.34 -0.68 0.68 0 0 Z " fill="#ABB2B3" transform="translate(30,95)"/>
<path d="M0 0 C1.8871875 0.0309375 1.8871875 0.0309375 3.8125 0.0625 C1.28769307 2.58730693 -0.32573034 2.61988633 -3.8125 3.1875 C-4.81539062 3.35507812 -5.81828125 3.52265625 -6.8515625 3.6953125 C-7.62242187 3.81648438 -8.39328125 3.93765625 -9.1875 4.0625 C-6.53873473 0.0893521 -4.49238456 -0.07364565 0 0 Z " fill="#DBE2E7" transform="translate(204.1875,37.9375)"/>
<path d="M0 0 C-1.15173355 2.46800047 -2.04783565 4.04783565 -4 6 C-7.625 6.125 -7.625 6.125 -11 6 C-11 5.67 -11 5.34 -11 5 C-9.35 4.67 -7.7 4.34 -6 4 C-5.67 3.01 -5.34 2.02 -5 1 C-2 0 -2 0 0 0 Z " fill="#3A3A3A" transform="translate(33,144)"/>
<path d="M0 0 C0.99 0.33 1.98 0.66 3 1 C2.51789063 1.39832031 2.03578125 1.79664063 1.5390625 2.20703125 C0.59160156 3.00173828 0.59160156 3.00173828 -0.375 3.8125 C-1.00148438 4.33457031 -1.62796875 4.85664063 -2.2734375 5.39453125 C-4.2221048 7.08225739 -4.2221048 7.08225739 -6 10 C-6.33 8.68 -6.66 7.36 -7 6 C-5.90716423 4.96704564 -4.80029421 3.94892165 -3.6875 2.9375 C-3.07261719 2.36902344 -2.45773437 1.80054688 -1.82421875 1.21484375 C-0.92123047 0.61349609 -0.92123047 0.61349609 0 0 Z " fill="#4C494C" transform="translate(357,128)"/>
<path d="M0 0 C1.65 0 3.3 0 5 0 C4.01 0.495 4.01 0.495 3 1 C3 1.66 3 2.32 3 3 C6.3 3 9.6 3 13 3 C12.67 3.66 12.34 4.32 12 5 C10.3745692 4.85904936 8.74965949 4.71207913 7.125 4.5625 C6.22007813 4.48128906 5.31515625 4.40007812 4.3828125 4.31640625 C2 4 2 4 0 3 C0 2.01 0 1.02 0 0 Z " fill="#A9624B" transform="translate(23,106)"/>
<path d="M0 0 C0.33 0.66 0.66 1.32 1 2 C-7.57142857 2.28571429 -7.57142857 2.28571429 -11 0 C-6.88825414 -1.37058195 -4.26339405 -0.75640862 0 0 Z " fill="#DDE4E9" transform="translate(304,39)"/>
<path d="M0 0 C0.66 0 1.32 0 2 0 C2 2.64 2 5.28 2 8 C1.01 8 0.02 8 -1 8 C-1.04241723 5.66705225 -1.04092937 3.33297433 -1 1 C-0.67 0.67 -0.34 0.34 0 0 Z " fill="#BFBBBC" transform="translate(87,130)"/>
<path d="M0 0 C0.66 0.33 1.32 0.66 2 1 C1.67 3.64 1.34 6.28 1 9 C0.01 9 -0.98 9 -2 9 C-2.33 8.01 -2.66 7.02 -3 6 C-2.34 5.34 -1.68 4.68 -1 4 C-0.3574765 1.93125966 -0.3574765 1.93125966 0 0 Z " fill="#969894" transform="translate(28,116)"/>
<path d="M0 0 C-0.33 1.32 -0.66 2.64 -1 4 C-2.98 4 -4.96 4 -7 4 C-6.67 3.01 -6.34 2.02 -6 1 C-4 0 -4 0 0 0 Z " fill="#B4BFC4" transform="translate(169,48)"/>
<path d="M0 0 C-1 2 -1 2 -3.25 3.125 C-6.01613295 4.00513321 -8.12048351 4.1645438 -11 4 C-7.04396675 0.96704118 -5.03239385 -0.13243142 0 0 Z " fill="#0B0C0E" transform="translate(340,102)"/>
<path d="M0 0 C1.32 0 2.64 0 4 0 C4 1.32 4 2.64 4 4 C2.02 4.66 0.04 5.32 -2 6 C-1.34 4.02 -0.68 2.04 0 0 Z " fill="#BBC9D1" transform="translate(140,61)"/>
<path d="M0 0 C0 0.66 0 1.32 0 2 C-3.3 2.33 -6.6 2.66 -10 3 C-8.0130571 -0.97388579 -3.91761109 -0.08705802 0 0 Z " fill="#A7A8A5" transform="translate(211,33)"/>
<path d="M0 0 C0.66 0.33 1.32 0.66 2 1 C1.1875 3.9375 1.1875 3.9375 0 7 C-0.99 7.33 -1.98 7.66 -3 8 C-1.125 1.125 -1.125 1.125 0 0 Z " fill="#0E0F12" transform="translate(313,119)"/>
<path d="M0 0 C0.66 0.33 1.32 0.66 2 1 C0.88121617 2.17262904 -0.24523051 3.33795138 -1.375 4.5 C-2.00148438 5.1496875 -2.62796875 5.799375 -3.2734375 6.46875 C-5 8 -5 8 -7 8 C-5.50902342 4.2047869 -3.24299151 2.38957269 0 0 Z " fill="#979495" transform="translate(330,114)"/>
<path d="M0 0 C0.33 0.66 0.66 1.32 1 2 C2.32 1.67 3.64 1.34 5 1 C2.82575883 3.50037734 1.26954202 4.43628586 -2 5 C-2 4.01 -2 3.02 -2 2 C-2.66 1.67 -3.32 1.34 -4 1 C-2 0 -2 0 0 0 Z " fill="#ACB5BA" transform="translate(146,59)"/>
<path d="M0 0 C4.29 0.66 8.58 1.32 13 2 C10 4 10 4 8 4 C8 3.34 8 2.68 8 2 C5.36 2 2.72 2 0 2 C0 1.34 0 0.68 0 0 Z " fill="#8A8B87" transform="translate(289,31)"/>
<path d="M0 0 C0.66 0.66 1.32 1.32 2 2 C1.96712417 4.72869407 1.43602229 7.2966618 1 10 C0.34 9.34 -0.32 8.68 -1 8 C-0.96712417 5.27130593 -0.43602229 2.7033382 0 0 Z " fill="#787974" transform="translate(128,86)"/>
<path d="M0 0 C1.32 0 2.64 0 4 0 C4 1.32 4 2.64 4 4 C2.35 3.67 0.7 3.34 -1 3 C-0.67 2.01 -0.34 1.02 0 0 Z " fill="#B6BDC1" transform="translate(171,45)"/>
</svg>
